HIERARCHY
ROOT hip
{
	OFFSET 0.000000 0.000000 0.000000 
	CHANNELS 6 Xposition Yposition Zposition Xrotation Zrotation Yrotation
	JOINT abdomen
	{
		OFFSET 0.000000 3.402643 0.000000 
		CHANNELS 3 Xrotation Zrotation Yrotation
		JOINT chest
		{
			OFFSET 0.000000 8.438565 -0.680529 
			CHANNELS 3 Xrotation Zrotation Yrotation
			JOINT neck
			{
				OFFSET 0.000000 10.207942 -0.272212 
				CHANNELS 3 Xrotation Zrotation Yrotation
				JOINT head
				{
					OFFSET 0.000000 3.130431 0.000000 
					CHANNELS 3 Xrotation Zrotation Yrotation
					End Site
					{
						OFFSET 0.000000 3.130435 0.000000 
					}
				}
			}
			JOINT lCollar
			{
				OFFSET 3.470700 6.669187 -0.816635 
				CHANNELS 3 Yrotation Zrotation Xrotation
				JOINT lShldr
				{
					OFFSET 3.198488 0.000000 0.000000 
					CHANNELS 3 Zrotation Yrotation Xrotation
					JOINT lForeArm
					{
						OFFSET 10.139888 0.000000 0.000000 
						CHANNELS 3 Yrotation Zrotation Xrotation
						JOINT lHand
						{
							OFFSET 8.370511 0.000000 0.000000 
							CHANNELS 3 Zrotation Yrotation Xrotation
							End Site
							{
								OFFSET 4.083176 0.000000 0.000000 
							}
						}
					}
				}
			}
			JOINT rCollar
			{
				OFFSET -3.470700 6.669187 -0.816635 
				CHANNELS 3 Yrotation Zrotation Xrotation
				JOINT rShldr
				{
					OFFSET -3.198488 0.000000 0.000000 
					CHANNELS 3 Zrotation Yrotation Xrotation
					JOINT rForeArm
					{
						OFFSET -10.139888 0.000000 0.000000 
						CHANNELS 3 Yrotation Zrotation Xrotation
						JOINT rHand
						{
							OFFSET -8.370511 0.000000 0.000000 
							CHANNELS 3 Zrotation Yrotation Xrotation
							End Site
							{
								OFFSET -4.083176 0.000000 0.000000 
							}
						}
					}
				}
			}
		}
	}
	JOINT lThigh
	{
		OFFSET 5.308129 -1.633274 1.361059 
		CHANNELS 3 Xrotation Zrotation Yrotation
		JOINT lShin
		{
			OFFSET -2.041588 -20.007561 0.000000 
			CHANNELS 3 Xrotation Zrotation Yrotation
			JOINT lFoot
			{
				OFFSET 0.000000 -19.190928 -1.224953 
				CHANNELS 3 Xrotation Yrotation Zrotation
				End Site
				{
					OFFSET 0.000000 -2.449906 4.627600 
				}
			}
		}
	}
	JOINT rThigh
	{
		OFFSET -5.308129 -1.633274 1.361059 
		CHANNELS 3 Xrotation Zrotation Yrotation
		JOINT rShin
		{
			OFFSET 2.041588 -20.007561 0.000000 
			CHANNELS 3 Xrotation Zrotation Yrotation
			JOINT rFoot
			{
				OFFSET 0.000000 -19.190928 -1.224953 
				CHANNELS 3 Xrotation Yrotation Zrotation
				End Site
				{
					OFFSET 0.000000 -2.449906 4.627600 
				}
			}
		}
	}
}
MOTION
Frames: 20
Frame Time: 0.016667
7.959751 38.644356 174.559921 23.443041 -3.007129 -1.222608 0.000000 0.000000 0.000000 6.661449 11.852607 -1.275496 -22.425287 -7.641745 -2.030206 0.541074 -3.749303 -1.106262 1.992188 -2.001953 0.000341 -76.151039 -25.621014 17.246578 -34.302692 1.656886 25.469313 -1.889728 -4.382344 -1.015324 -2.001953 1.992188 0.000000 75.755341 51.757111 -15.006175 42.906021 -1.450745 35.561798 -30.324286 -4.762232 -0.998796 -39.037521 11.765828 0.463558 24.259340 -2.002699 -4.127711 -10.816484 1.158365 -10.272725 -23.524755 -7.577720 -19.149071 -3.531457 2.018887 5.298907 4.321136 4.602347 6.149087 
7.841743 37.263565 174.467239 24.920856 -2.694889 -1.016797 0.000000 0.000000 0.000000 7.548925 10.653166 -0.842849 -22.790983 -6.913287 -3.178359 -4.057147 -3.534578 -1.037401 1.992188 -2.001953 0.000341 -76.395058 -32.907780 13.393915 -30.641161 2.469745 26.270880 2.957673 -3.041686 -1.328861 -2.001953 1.992188 0.000000 76.487938 53.656593 -18.473658 41.797909 -1.611227 38.151970 -32.394524 -5.325835 -0.822860 -46.395073 12.109274 2.289548 35.312016 -1.775557 -7.237864 -13.733177 1.014657 -7.063470 -35.471256 -11.020622 -17.511663 17.800091 1.591592 5.614436 -4.970744 4.336286 3.626400 
7.723927 35.883595 174.376160 26.400915 -2.382574 -0.811470 0.000000 0.000000 0.000000 8.405020 9.452856 -0.435080 -23.164581 -6.193332 -4.332028 -8.663316 -3.329584 -0.988066 1.992188 -2.001953 0.000341 -76.021584 -40.166847 9.198284 -26.980190 3.334223 27.015032 7.777702 -1.674242 -1.529139 -2.001953 1.992188 0.000000 77.038841 55.553619 -22.068163 40.692646 -1.812516 40.728382 -34.455780 -5.879528 -0.621855 -53.756485 12.655362 4.071322 46.311413 -0.948357 -10.253509 -16.655891 0.681932 -3.855802 -47.658657 -14.058176 -15.171223 39.085526 1.084184 5.762586 -14.256845 4.461346 1.101688 
7.677889 34.802776 174.889847 27.940937 -2.450837 -0.948487 0.000000 0.000000 0.000000 7.947455 9.306638 0.049765 -21.927660 -6.060656 -5.038401 -13.797542 -3.124599 -0.919798 1.992188 -2.001953 0.000341 -77.045197 -42.266537 7.885308 -21.896032 4.588911 26.438425 9.748303 -1.118057 -1.569130 -2.001953 1.992188 0.000000 78.766258 53.214451 -20.963980 36.537319 -2.599654 39.224419 -34.794632 -5.967002 -0.588542 -58.896885 13.483358 4.300261 53.153645 -0.540902 -11.334462 -18.870127 0.722420 -3.113055 -53.032448 -15.036445 -14.900110 46.562031 0.654303 6.150800 -16.669136 4.422294 0.560303 
7.631797 33.722561 175.403091 29.471521 -2.519080 -1.085083 0.000000 0.000000 0.000000 7.479280 9.169517 0.544252 -20.695921 -5.907905 -5.743762 -18.921158 -2.909829 -0.860746 1.992188 -2.001953 0.000341 -78.035751 -44.372879 6.588004 -16.783886 5.797690 25.740732 11.708259 -0.556039 -1.601068 -2.001953 1.992188 0.000000 80.333946 50.860607 -20.022581 32.364586 -3.270623 37.664600 -35.123707 -6.054181 -0.554230 -64.070145 14.335545 4.449731 59.951984 -0.005167 -12.327364 -21.064768 0.716158 -2.373718 -58.443047 -15.984246 -14.515142 54.013100 0.166044 6.463516 -19.093857 4.403695 0.021298 
7.563440 32.862530 175.764679 30.303364 -3.134007 -1.262152 0.000000 0.000000 0.000000 6.809929 9.656898 0.952063 -19.908905 -5.722797 -5.791331 -20.276577 -2.255708 -0.664701 1.992188 -2.001953 0.000341 -80.831284 -45.114101 9.015782 -10.642811 5.656422 22.616577 12.222417 -0.411318 -1.607808 -2.001953 1.992188 0.000000 82.077896 49.244987 -14.899699 26.611473 -4.023261 33.241619 -31.968847 -5.205804 -0.865151 -66.887779 15.085933 3.574976 64.172249 0.354431 -12.681654 -23.060423 0.763108 -2.177845 -60.558289 -15.620904 -13.957970 57.878586 -0.175642 5.602355 -22.238991 4.263328 0.475457 
7.495228 32.003780 176.127411 31.128990 -3.739059 -1.438859 0.000000 0.000000 0.000000 6.145867 10.143730 1.350359 -19.142675 -5.537813 -5.828275 -21.617563 -1.591741 -0.478874 1.992188 -2.001953 0.000341 -83.693863 -45.785404 11.514035 -4.538444 5.181047 19.535004 12.707156 -0.269506 -1.602392 -2.001953 1.992188 0.000000 83.549095 47.574120 -10.016295 20.830334 -4.340381 28.761019 -28.814669 -4.345551 -1.127466 -69.726624 15.791247 2.641732 68.402039 0.695453 -13.010247 -25.035740 0.839559 -1.980722 -62.691650 -15.242339 -13.398148 61.734520 -0.478344 4.721738 -25.384216 4.071508 0.944647 
7.480607 31.620247 176.919250 30.112675 -3.300689 -0.430661 0.000000 0.000000 0.000000 9.060416 9.013062 0.672691 -21.300528 -4.665191 -5.604703 -21.462030 -2.079958 -0.615892 1.992188 -2.001953 0.000341 -85.955711 -53.351269 16.804136 -2.548015 4.924751 17.956070 3.648129 -2.849376 -1.364291 -2.001953 1.992188 0.000000 82.837509 55.187538 -6.474474 16.901184 -5.029109 26.776747 -22.748861 -2.640875 -1.496668 -69.049385 14.354568 1.830042 70.291977 0.950476 -12.075768 -26.155685 0.943516 -2.791876 -62.319939 -15.779255 -11.971467 64.327461 -0.751673 3.119396 -27.273975 3.939660 1.824461 
7.465827 31.237003 177.709915 29.112413 -2.851423 0.566676 0.000000 0.000000 0.000000 11.963135 7.929681 -0.067706 -23.449623 -3.791664 -5.412429 -21.303722 -2.568132 -0.762704 1.992188 -2.001953 0.000341 -90.127831 -60.695057 23.870489 -0.566546 4.627645 16.401129 -5.447861 -5.346413 -0.712687 -2.001953 1.992188 0.000000 82.999641 62.783180 -2.233911 12.964038 -5.572532 24.763763 -16.708702 -0.913527 -1.683559 -68.359581 12.959255 1.001075 72.202690 1.134585 -11.180429 -27.261784 1.077042 -3.564329 -61.954868 -16.324678 -10.548847 66.941139 -0.956887 1.548110 -29.169081 3.723960 2.676891 
7.389796 30.958122 178.058548 30.187929 -3.642394 0.576869 0.000000 0.000000 0.000000 9.913828 8.622791 -0.443270 -22.996767 -3.561283 -4.883025 -21.215319 -3.241735 -0.958813 1.992188 -2.001953 0.000341 -92.627335 -57.377354 25.618986 -0.778017 4.470955 16.064722 -13.291053 -7.388949 0.158008 -2.001953 1.992188 0.000000 84.483414 59.365845 5.318091 12.108019 -6.236462 25.000612 -14.907156 -0.393176 -1.704309 -68.640152 13.329673 0.430064 72.998001 1.184592 -11.868393 -30.852381 1.003994 -0.875104 -62.650219 -15.895823 -10.904628 68.539108 -1.103405 1.036794 -30.304703 3.658592 2.988512 
7.313961 30.680277 178.408463 31.264580 -4.443141 0.567730 0.000000 0.000000 0.000000 7.871933 9.295891 -0.839683 -22.547890 -3.349706 -4.353671 -21.122097 -3.924987 -1.155657 1.992188 -2.001953 0.000341 -94.746147 -54.049606 26.979477 -0.979262 4.310122 15.728898 -21.184708 -9.287209 1.307942 -2.001953 1.992188 0.000000 85.025490 55.900131 12.003798 11.269048 -6.910129 25.233124 -13.114285 0.112919 -1.710797 -68.922325 13.710586 -0.180667 73.804337 1.183827 -12.581133 -34.425091 0.770335 1.796765 -63.341465 -15.465126 -11.256134 70.137169 -1.249882 0.521074 -31.430462 3.570331 3.318657 
7.311894 30.789867 179.251770 31.202049 -4.628547 0.714506 0.000000 0.000000 0.000000 7.910820 9.051409 -0.987446 -23.227304 -2.892045 -4.351490 -21.476669 -4.305582 -1.273279 1.992188 -2.001953 0.000341 -95.404701 -54.114895 24.900816 -2.627102 4.028991 15.757535 -20.988794 -9.239061 1.276870 -2.001953 1.992188 0.000000 84.815910 55.076797 16.200993 13.300915 -7.349890 27.194515 -14.819862 -0.371689 -1.709906 -67.756798 13.475381 -0.644589 73.806992 1.223418 -11.891134 -34.899654 0.818001 1.462293 -62.156921 -15.068097 -11.069296 70.118416 -1.269632 -0.275401 -31.728756 3.528711 3.689281 
7.309922 30.900410 180.094986 31.138409 -4.823675 0.862079 0.000000 0.000000 0.000000 7.941020 8.816652 -1.135221 -23.916040 -2.434352 -4.359411 -21.841034 -4.686163 -1.372190 1.992188 -2.001953 0.000341 -96.044922 -54.205166 22.835173 -4.283697 3.742850 15.781845 -20.771662 -9.194699 1.234010 -2.001953 1.992188 0.000000 84.496315 54.263908 20.280958 15.353579 -7.720102 29.159508 -16.534224 -0.868153 -1.687967 -66.573601 13.250458 -1.140799 73.791161 1.231597 -11.211878 -35.393013 0.859930 1.122853 -60.953228 -14.676327 -10.883271 70.108856 -1.289203 -1.052377 -32.017925 3.480711 4.042916 
7.343951 31.367296 180.906876 30.277010 -4.667023 1.155674 0.000000 0.000000 0.000000 8.791557 8.620208 -1.480494 -24.940643 -2.454601 -4.115496 -22.399639 -4.637367 -1.362452 1.992188 -2.001953 0.000341 -94.871925 -53.861179 22.988884 -9.191822 2.519090 15.263638 -15.502900 -7.931253 0.455292 -2.001953 1.992188 0.000000 83.585358 54.938622 19.559462 18.174726 -6.644366 30.088779 -19.748354 -1.795343 -1.617082 -63.661243 12.461071 -1.712526 72.095840 1.074156 -9.825101 -35.030682 0.937486 0.206151 -58.092731 -14.276130 -10.428712 68.311630 -1.123376 -1.933433 -31.711899 3.422145 4.579840 
7.377930 31.834805 181.719055 29.427753 -4.510299 1.439548 0.000000 0.000000 0.000000 9.634400 8.433274 -1.825769 -25.966076 -2.465074 -3.871164 -22.967993 -4.588571 -1.352711 1.992188 -2.001953 0.000341 -93.700806 -53.509079 23.160482 -14.107517 1.344536 14.649475 -10.271081 -6.627316 -0.202756 -2.001953 1.992188 0.000000 82.662231 55.595177 18.831936 20.966576 -5.525561 30.950794 -22.952084 -2.698753 -1.486079 -60.732964 11.687535 -2.281075 70.389038 1.008383 -8.415894 -34.681305 1.013977 -0.768461 -55.226250 -13.883462 -9.934453 66.514267 -1.006384 -2.852211 -31.369720 3.372172 5.154975 
7.394433 32.539303 182.625183 28.557907 -4.520865 0.949706 0.000000 0.000000 0.000000 9.024960 8.229678 -1.488776 -25.900557 -2.640785 -3.763866 -22.763681 -4.364145 -1.283018 1.992188 -2.001953 0.000341 -91.748024 -49.909431 28.015251 -19.008810 0.763926 15.249613 -12.382378 -7.158649 0.048230 -2.001953 1.992188 0.000000 81.522163 52.915733 20.652010 23.323275 -4.313003 30.002644 -21.877628 -2.398354 -1.540750 -57.157482 11.882560 -2.639546 67.576111 0.762802 -7.505856 -33.736351 1.114462 -1.937674 -51.877579 -12.887862 -9.641833 63.385624 -0.732492 -3.351696 -29.926908 3.398964 5.326133 
7.410928 33.244568 183.530930 27.687380 -4.540864 0.469598 0.000000 0.000000 0.000000 8.422662 8.035501 -1.153200 -25.824823 -2.826243 -3.666798 -22.548355 -4.139683 -1.224568 1.992188 -2.001953 0.000341 -89.501549 -46.414227 32.718777 -23.896719 0.144328 15.813681 -14.465535 -7.684812 0.316626 -2.001953 1.992188 0.000000 80.308151 50.270546 22.458031 25.701849 -3.152407 29.002377 -20.803568 -2.093465 -1.575504 -53.591717 12.108566 -3.005248 64.782318 0.539978 -6.577627 -32.780422 1.212431 -3.113455 -48.544056 -11.933460 -9.293628 60.246830 -0.488815 -3.884435 -28.466106 3.445354 5.519137 
7.426579 34.230560 184.289017 26.296608 -4.677719 0.146793 0.000000 0.000000 0.000000 7.460814 8.055486 -0.976415 -25.186989 -3.109202 -3.569793 -21.408386 -3.837139 -1.135501 1.992188 -2.001953 0.000341 -88.032845 -42.604641 37.761250 -26.485220 1.004790 19.212135 -6.472047 -5.623527 -0.615926 -2.001953 1.992188 0.000000 79.243088 47.407825 23.997555 26.856146 -1.938878 26.135408 -18.519154 -1.438939 -1.649777 -49.121300 12.487794 -2.758432 60.800335 0.208521 -5.865064 -30.086075 1.219772 -3.888056 -44.253056 -11.209198 -9.466817 55.983978 -0.175986 -3.662957 -25.235224 3.584429 5.225813 
7.442419 35.217377 185.048660 24.907413 -4.824196 -0.176801 0.000000 0.000000 0.000000 6.507330 8.085143 -0.807930 -24.550114 -3.392211 -3.473427 -20.268084 -3.534578 -1.037401 1.992188 -2.001953 0.000341 -86.226372 -38.899441 42.651093 -29.112028 1.707552 22.662891 1.459164 -3.456664 -1.238921 -2.001953 1.992188 0.000000 78.124237 44.573223 25.536097 28.082348 -0.786486 23.256502 -16.224434 -0.775775 -1.686394 -44.669483 12.849452 -2.503432 56.807373 -0.093019 -5.121390 -27.394539 1.200397 -4.676704 -39.991585 -10.475003 -9.584930 51.700859 0.136100 -3.473419 -21.986528 3.712502 4.935682 
7.524583 36.490932 186.362152 22.690828 -4.892555 -0.176807 0.000000 0.000000 0.000000 5.572216 8.114336 -0.857644 -23.149416 -3.703228 -3.699456 -18.594084 -3.056257 -0.909515 1.992188 -2.001953 0.000341 -84.722649 -34.969070 44.409092 -29.833454 2.313804 26.366606 9.156500 -1.291631 -1.562930 -2.001953 1.992188 0.000000 77.422096 41.916279 28.343302 27.971493 -0.648709 22.389898 -13.114570 0.122426 -1.713009 -39.872295 12.936234 -3.136483 52.325619 -0.417889 -4.333693 -20.255493 1.585400 -8.707475 -34.471718 -10.126633 -10.018032 46.165672 0.448710 -2.833555 -16.504633 3.976257 4.769410 
